<svg xmlns="http://www.w3.org/2000/svg" width="143" height="42" viewBox="0 0 143 42"><defs><style>.a{fill:#fff;font-size:16px;font-family:RobotoMono-Medium, Roboto Mono;font-weight:500;letter-spacing:0.013em;}.b{fill:#ff685c;}.c{fill:#fbc54c;}.d{fill:#da83f6;}</style></defs><g transform="translate(-171 -16.5)"><text class="a" transform="translate(171 33.5)"><tspan x="0" y="0">FRONT IN</tspan></text><text class="a" transform="translate(216 54.5)"><tspan x="0" y="0">SAMPA 2019</tspan></text><g transform="translate(171 40.5)"><path class="b" d="M142.8,418.825H108.016a2.489,2.489,0,1,1,0-4.971H142.8a2.489,2.489,0,1,1,0,4.971Z" transform="translate(-105.407 -413.854)"/><g transform="translate(0 10.027)"><path class="c" d="M107.893,469.228h8.286a2.486,2.486,0,1,1,0,4.971h-8.286a2.486,2.486,0,1,1,0-4.971Z" transform="translate(-105.407 -469.228)"/></g><g transform="translate(19.662 10.027)"><path class="d" d="M209.849,469.228h4.143a2.486,2.486,0,0,1,0,4.971h-4.143a2.486,2.486,0,1,1,0-4.971Z" transform="translate(-207.363 -469.228)"/></g></g></g></svg>