<svg xmlns="http://www.w3.org/2000/svg" width="20" height="20" viewBox="0 0 20 20"><defs><style>.a{fill:#fff;}</style></defs><path class="a" d="M17.071,2.929A9.934,9.934,0,0,0,10,0h0A10,10,0,0,0,2.929,17.071,10,10,0,0,0,17.071,2.929Zm.653,11.341H14.8a13.161,13.161,0,0,0,.683-3.684h3.327A8.762,8.762,0,0,1,17.724,14.27ZM10,18.741a8.294,8.294,0,0,1-3.026-3.3h6.051A8.294,8.294,0,0,1,10,18.741ZM6.445,14.27a11.913,11.913,0,0,1-.753-3.684h8.616a11.913,11.913,0,0,1-.753,3.684ZM1.192,10.586H4.519A13.161,13.161,0,0,0,5.2,14.27H2.276A8.762,8.762,0,0,1,1.192,10.586ZM2.276,5.73H5.2a13.161,13.161,0,0,0-.683,3.684H1.192A8.762,8.762,0,0,1,2.276,5.73ZM10,1.259a8.294,8.294,0,0,1,3.026,3.3H6.974A8.294,8.294,0,0,1,10,1.259ZM13.555,5.73a11.913,11.913,0,0,1,.753,3.684H5.692A11.913,11.913,0,0,1,6.445,5.73Zm5.253,3.684H15.481A13.161,13.161,0,0,0,14.8,5.73h2.927A8.762,8.762,0,0,1,18.808,9.414Zm-4.48-4.856a10.374,10.374,0,0,0-2.187-3.123,8.849,8.849,0,0,1,4.806,3.123ZM7.859,1.435A10.374,10.374,0,0,0,5.672,4.558H3.053A8.849,8.849,0,0,1,7.859,1.435ZM5.672,15.442a10.374,10.374,0,0,0,2.188,3.123,8.849,8.849,0,0,1-4.806-3.123Zm6.469,3.123a10.376,10.376,0,0,0,2.188-3.123h2.618A8.849,8.849,0,0,1,12.141,18.565Zm0,0"/></svg>