<svg xmlns="http://www.w3.org/2000/svg" width="20" height="20" viewBox="0 0 20 20"><defs><style>.a{fill:#fff;}</style></defs><path class="a" d="M1182.958,2883a5.965,5.965,0,0,1-5.958-5.958v-8.084a5.965,5.965,0,0,1,5.958-5.958h8.084a5.965,5.965,0,0,1,5.958,5.958v8.084a5.965,5.965,0,0,1-5.958,5.958Zm-3.946-14.042v8.084a3.946,3.946,0,0,0,3.946,3.946h8.084a3.946,3.946,0,0,0,3.946-3.946v-8.084a3.946,3.946,0,0,0-3.946-3.946h-8.084A3.946,3.946,0,0,0,1179.012,2868.958Zm2.815,4.042a5.173,5.173,0,1,1,5.173,5.173A5.179,5.179,0,0,1,1181.828,2873Zm2.012,0a3.161,3.161,0,1,0,3.161-3.161A3.161,3.161,0,0,0,1183.839,2873Zm7.1-5.134a1.24,1.24,0,1,1,1.24,1.239A1.239,1.239,0,0,1,1190.943,2867.866Z" transform="translate(-1177 -2863)"/></svg>