<svg xmlns="http://www.w3.org/2000/svg" width="24.044" height="20" viewBox="0 0 24.044 20"><defs><style>.a{fill:#fff;}</style></defs><path class="a" d="M23.662,36.818A9.521,9.521,0,0,1,22,37.377,5.169,5.169,0,0,0,23.368,35.2h0a.271.271,0,0,0-.4-.316h0a9.566,9.566,0,0,1-2.534,1.047.646.646,0,0,1-.158.02.672.672,0,0,1-.444-.169,5.184,5.184,0,0,0-3.43-1.294,5.542,5.542,0,0,0-1.642.254,5.022,5.022,0,0,0-3.385,3.618,5.53,5.53,0,0,0-.123,1.909.186.186,0,0,1-.047.145.192.192,0,0,1-.143.065h-.018A13.592,13.592,0,0,1,1.706,35.49h0a.271.271,0,0,0-.444.035h0a5.19,5.19,0,0,0,.843,6.3,4.645,4.645,0,0,1-1.182-.458h0a.271.271,0,0,0-.4.234h0a5.19,5.19,0,0,0,3.028,4.782H3.437a4.664,4.664,0,0,1-.873-.083h0a.271.271,0,0,0-.309.349h0a5.2,5.2,0,0,0,4.1,3.534A9.565,9.565,0,0,1,1,51.811H.4a.4.4,0,0,0-.388.3.411.411,0,0,0,.2.454,14.227,14.227,0,0,0,7.149,1.928,14.423,14.423,0,0,0,6.109-1.3,13.491,13.491,0,0,0,4.47-3.35,14.686,14.686,0,0,0,2.737-4.584,14.481,14.481,0,0,0,.93-5.017v-.079a.882.882,0,0,1,.33-.687A10.246,10.246,0,0,0,24,37.216h0a.271.271,0,0,0-.335-.4Z" transform="translate(0 -34.491)"/></svg>