<svg xmlns="http://www.w3.org/2000/svg" width="10.603" height="20" viewBox="0 0 10.603 20"><defs><style>.a{fill:#fff;}</style></defs><path class="a" d="M155.034,90.664l.015-8.641H152.8a.53.53,0,0,1-.53-.528l-.011-2.785a.53.53,0,0,1,.53-.532h2.241V75.488c0-3.123,1.907-4.824,4.693-4.824h2.286a.53.53,0,0,1,.53.53v2.348a.53.53,0,0,1-.529.53h-1.4c-1.515,0-1.809.72-1.809,1.777v2.33h3.329a.53.53,0,0,1,.526.592l-.33,2.785a.53.53,0,0,1-.526.467h-2.984l-.015,8.64Z" transform="translate(-152.058 -70.664)"/></svg>