<svg xmlns="http://www.w3.org/2000/svg" width="20.501" height="20" viewBox="0 0 20.501 20"><defs><style>.a{fill:#fff;}</style></defs><path class="a" d="M19.126,10.47A10.206,10.206,0,0,0,15.4,6.74a10.026,10.026,0,0,0-5.145-1.375A10.027,10.027,0,0,0,5.105,6.74,10.2,10.2,0,0,0,1.375,10.47,10.027,10.027,0,0,0,0,15.615a9.962,9.962,0,0,0,1.955,6.026,10.039,10.039,0,0,0,5.052,3.7.6.6,0,0,0,.534-.093.522.522,0,0,0,.173-.4q0-.04-.007-.721T7.7,22.943L7.394,23a3.916,3.916,0,0,1-.741.047,5.644,5.644,0,0,1-.928-.093,2.073,2.073,0,0,1-.894-.4,1.694,1.694,0,0,1-.587-.821l-.133-.307a3.335,3.335,0,0,0-.42-.681,1.611,1.611,0,0,0-.581-.507l-.093-.067a.98.98,0,0,1-.173-.16.732.732,0,0,1-.12-.187q-.04-.094.067-.154a.866.866,0,0,1,.387-.06l.267.04a1.948,1.948,0,0,1,.661.32,2.154,2.154,0,0,1,.647.694,2.353,2.353,0,0,0,.741.834,1.571,1.571,0,0,0,.874.287,3.8,3.8,0,0,0,.761-.067,2.655,2.655,0,0,0,.6-.2,2.163,2.163,0,0,1,.654-1.375,9.139,9.139,0,0,1-1.368-.24,5.447,5.447,0,0,1-1.254-.521,3.593,3.593,0,0,1-1.075-.894,4.3,4.3,0,0,1-.7-1.4,6.664,6.664,0,0,1-.274-2,3.893,3.893,0,0,1,1.055-2.75,3.588,3.588,0,0,1,.093-2.723,1.87,1.87,0,0,1,1.148.18,8.025,8.025,0,0,1,1.114.514q.354.213.567.36a9.639,9.639,0,0,1,5.126,0l.507-.32a7.183,7.183,0,0,1,1.228-.587,1.749,1.749,0,0,1,1.081-.147,3.553,3.553,0,0,1,.107,2.723,3.894,3.894,0,0,1,1.055,2.75,6.739,6.739,0,0,1-.274,2.009,4.13,4.13,0,0,1-.707,1.4,3.731,3.731,0,0,1-1.081.888,5.458,5.458,0,0,1-1.255.521,9.13,9.13,0,0,1-1.368.241,2.377,2.377,0,0,1,.694,1.9v2.816a.532.532,0,0,0,.167.4.58.58,0,0,0,.527.093,10.038,10.038,0,0,0,5.052-3.7A9.964,9.964,0,0,0,20.5,15.615,10.035,10.035,0,0,0,19.126,10.47Z" transform="translate(0 -5.365)"/></svg>