<?xml version="1.0" encoding="utf-8"?>
<!-- Generator: Adobe Illustrator 23.0.0, SVG Export Plug-In . SVG Version: 6.00 Build 0)  -->
<svg version="1.1" id="logo" xmlns="http://www.w3.org/2000/svg" xmlns:xlink="http://www.w3.org/1999/xlink" x="0px" y="0px"
	 viewBox="0 0 675.3 299.9" style="enable-background:new 0 0 675.3 299.9;" xml:space="preserve">
<style type="text/css">
	.st0{fill:#FFFFFF;}
	.st1{fill:#E6E6E6;}
</style>
<g>
	<path class="st0" d="M213.3,212.6h7.3c0.9,0,1.6-0.7,1.6-1.6v-23.4H244c0.9,0,1.6-0.7,1.6-1.6V180c0-0.9-0.7-1.6-1.6-1.6h-21.9
		v-16.2h25.9c0.9,0,1.6-0.7,1.6-1.6v-6.1c0-0.9-0.7-1.6-1.6-1.6h-34.7c-0.9,0-1.6,0.7-1.6,1.6V211
		C211.7,211.9,212.4,212.6,213.3,212.6z"/>
	<path class="st0" d="M260.6,212.6h7.1c0.9,0,1.6-0.7,1.6-1.6v-21.5h8.7l10.7,22.2c0.3,0.5,0.8,0.9,1.4,0.9h7.6
		c0.8,0,1.5-0.6,1.6-1.4l0-0.5c0-0.3,0-0.6-0.2-0.8l-11.3-22.7c1.1-0.6,2.1-1.2,3.1-1.9c1.4-1,2.6-2.3,3.7-3.6
		c1-1.4,1.8-2.9,2.4-4.6c0.6-1.7,0.9-3.5,0.9-5.5c0-3.1-0.5-5.8-1.6-8.1c-1.1-2.3-2.6-4.3-4.5-5.8c-1.9-1.5-4.1-2.7-6.6-3.4
		c-2.5-0.7-5.1-1.1-7.9-1.2h-16.6c-0.9,0-1.6,0.7-1.6,1.6V211C259,211.9,259.7,212.6,260.6,212.6z M269.3,180.5V162h7.8
		c1.6,0,3,0.3,4.3,0.7c1.3,0.4,2.3,1,3.2,1.8c0.9,0.8,1.6,1.7,2.1,2.9c0.5,1.2,0.8,2.5,0.8,4.1c0,1.5-0.3,2.8-0.8,3.8
		c-0.5,1.1-1.2,2-2.1,2.8c-0.9,0.8-2,1.4-3.2,1.8c-1.3,0.4-2.6,0.7-4,0.7L269.3,180.5L269.3,180.5z"/>
	<path class="st0" d="M344.1,167c-0.7-2-1.7-3.9-2.8-5.7c-1.1-1.8-2.5-3.4-4-4.7c-1.6-1.3-3.4-2.4-5.5-3.2s-4.4-1.2-6.9-1.2
		c-2.5,0-4.8,0.4-6.9,1.2c-2,0.8-3.9,1.9-5.5,3.2c-1.6,1.3-2.9,2.9-4,4.7c-1.1,1.8-2,3.7-2.8,5.7s-1.3,4.1-1.6,6.2
		c-0.3,2.1-0.5,4.3-0.5,6.3v6.5c0,2.1,0.2,4.2,0.6,6.3c0.4,2.1,0.9,4.2,1.6,6.2c0.7,2,1.6,3.9,2.8,5.7c1.1,1.8,2.5,3.4,4.1,4.7
		c1.6,1.3,3.4,2.4,5.5,3.2c2,0.8,4.3,1.2,6.9,1.2c2.5,0,4.8-0.4,6.9-1.2c2-0.8,3.9-1.8,5.5-3.2c1.6-1.3,2.9-2.9,4-4.7
		c1.1-1.7,2-3.7,2.7-5.7c0.7-2,1.2-4.1,1.6-6.2c0.3-2.1,0.5-4.2,0.5-6.3c0,0,0,0,0,0v-6.5c0-2.1-0.2-4.2-0.5-6.3
		C345.3,171.1,344.8,169,344.1,167z M325,203.9c-1.4,0-2.7-0.3-3.8-0.7c-1.1-0.5-2-1.2-2.8-2c-0.8-0.9-1.5-1.9-2-3.1
		c-0.6-1.2-1.1-2.5-1.4-3.9c-0.4-1.3-0.6-2.7-0.8-4.1c-0.2-1.4-0.3-2.8-0.3-4v-6.5c0-1.3,0.1-2.6,0.3-4c0.2-1.4,0.4-2.8,0.8-4.1
		c0.3-1.3,0.8-2.6,1.4-3.8c0.5-1.2,1.2-2.2,2.1-3c0.8-0.8,1.7-1.5,2.8-2c1-0.5,2.3-0.7,3.7-0.7c1.5,0,2.7,0.3,3.8,0.7
		c1.1,0.5,2,1.2,2.8,2c0.8,0.9,1.5,1.9,2.1,3c0.6,1.2,1,2.5,1.4,3.8c0.3,1.3,0.6,2.7,0.8,4.1c0.2,1.4,0.2,2.8,0.3,4.1v6.5
		c0,1.3-0.1,2.7-0.2,4.1c-0.1,1.4-0.4,2.8-0.7,4.1c-0.3,1.3-0.8,2.6-1.4,3.8c-0.5,1.2-1.2,2.2-2,3c-0.8,0.8-1.7,1.5-2.8,2
		C327.8,203.6,326.5,203.9,325,203.9z"/>
	<path class="st0" d="M363.2,211l0.1-35.8l19,36.5c0.3,0.5,0.8,0.8,1.4,0.8h7.3c0.9,0,1.6-0.7,1.6-1.6v-56.5c0-0.9-0.7-1.6-1.6-1.6
		h-7.3c-0.9,0-1.6,0.7-1.6,1.6l-0.1,35.8l-19-36.5c-0.3-0.5-0.8-0.8-1.4-0.8h-7.3c-0.9,0-1.6,0.7-1.6,1.6V211c0,0.9,0.7,1.6,1.6,1.6
		h7.2C362.5,212.6,363.2,211.9,363.2,211z"/>
	<path class="st0" d="M399.5,162.2h15.9V211c0,0.9,0.7,1.6,1.6,1.6h7c0.9,0,1.6-0.7,1.6-1.6v-48.8h15.9c0.9,0,1.6-0.7,1.6-1.6v-6.1
		c0-0.9-0.7-1.6-1.6-1.6h-41.9c-0.9,0-1.6,0.7-1.6,1.6v6.1C397.9,161.5,398.6,162.2,399.5,162.2z"/>
	<path class="st0" d="M498.6,212.6h34.1c0.9,0,1.6-0.7,1.6-1.6v-6.2c0-0.9-0.7-1.6-1.6-1.6h-12v-40.9h12c0.9,0,1.6-0.7,1.6-1.6v-6.2
		c0-0.9-0.7-1.6-1.6-1.6h-34.1c-0.9,0-1.6,0.7-1.6,1.6v6.2c0,0.9,0.7,1.6,1.6,1.6h11.7v40.9h-11.7c-0.9,0-1.6,0.7-1.6,1.6v6.2
		C497,211.9,497.7,212.6,498.6,212.6z"/>
	<path class="st0" d="M545,212.6h7.3c0.9,0,1.6-0.7,1.6-1.6l0.1-35.8l19,36.5c0.3,0.5,0.8,0.8,1.4,0.8h7.3c0.9,0,1.6-0.7,1.6-1.6
		v-56.5c0-0.9-0.7-1.6-1.6-1.6h-7.3c-0.9,0-1.6,0.7-1.6,1.6l-0.1,35.8l-19-36.5c-0.3-0.5-0.8-0.8-1.4-0.8H545
		c-0.9,0-1.6,0.7-1.6,1.6V211C543.5,211.9,544.2,212.6,545,212.6z"/>
	<path class="st0" d="M248.2,273.6c-0.9-1.3-2-2.4-3.3-3.4c-1.2-1-2.5-1.8-3.9-2.6c-1.4-0.8-2.8-1.4-4.3-2c-1.5-0.6-2.9-1.1-4.3-1.5
		c-1.2-0.4-2.6-0.8-4-1.3c-1.3-0.5-2.6-1.1-3.7-1.8c-1-0.7-1.9-1.5-2.6-2.4c-0.6-0.9-0.9-1.9-1-3.2c0-1.2,0.2-2.3,0.7-3.2
		c0.5-0.9,1.2-1.7,2-2.4c0.9-0.7,1.9-1.2,3-1.5c2.6-0.8,5.5-0.7,7.6,0.2c1.1,0.5,2.2,1.1,3,1.9c0.8,0.8,1.5,1.8,2,3
		c0.5,1.2,0.9,2.5,1.1,4c0.1,0.8,0.8,1.4,1.5,1.4h7.4c0.4,0,0.8-0.2,1.1-0.5s0.5-0.7,0.5-1.1c-0.1-2.8-0.7-5.4-1.8-7.7
		c-1.1-2.3-2.7-4.2-4.6-5.8c-1.9-1.6-4.1-2.8-6.5-3.7c-4.6-1.7-9.8-1.8-14.7-0.2c-2.4,0.7-4.5,1.8-6.4,3.3c-1.9,1.4-3.5,3.2-4.6,5.3
		c-1.2,2.1-1.8,4.6-1.8,7.3c0,2.7,0.6,5.1,1.8,7.1c1.2,2,2.7,3.7,4.5,5.1c1.8,1.4,3.8,2.6,6,3.5c2.1,0.9,4.2,1.7,6.2,2.4
		c1.4,0.4,2.8,0.9,4.2,1.5c1.4,0.5,2.6,1.1,3.8,1.9c1.1,0.7,1.9,1.6,2.6,2.6c0.6,0.9,0.9,2.1,0.9,3.5c0,1.3-0.3,2.3-0.8,3.2
		c-0.6,0.9-1.3,1.7-2.1,2.3c-0.9,0.6-2,1.1-3.1,1.4c-2.8,0.7-5.8,0.6-8.1-0.2c-1.3-0.4-2.4-1-3.4-1.8s-1.8-1.8-2.4-3
		c-0.6-1.2-1.1-2.6-1.3-4.1c-0.1-0.8-0.8-1.4-1.5-1.4h-7.3c-0.4,0-0.8,0.2-1.1,0.5s-0.5,0.7-0.4,1.1c0.1,2.9,0.8,5.6,2.1,7.9
		c1.3,2.3,3,4.2,5,5.8c2,1.6,4.4,2.8,6.9,3.6c2.5,0.8,5.2,1.2,7.9,1.2c2.4,0,4.8-0.3,7.2-1c2.4-0.7,4.6-1.7,6.5-3.1
		c2-1.4,3.6-3.1,4.8-5.2c1.3-2.1,1.9-4.6,1.9-7.4c0-1.8-0.3-3.6-0.8-5.1C249.9,276.3,249.1,274.9,248.2,273.6z"/>
	<path class="st0" d="M282.4,240.4c-0.2-0.7-0.8-1.1-1.5-1.1h-6c-0.7,0-1.3,0.4-1.5,1.1l-18.2,56.5c-0.1,0.5-0.1,1,0.2,1.4
		s0.8,0.6,1.3,0.6h7.2c0.7,0,1.3-0.5,1.5-1.1l4.2-13.5h16.5l4.1,13.5c0.2,0.7,0.8,1.1,1.5,1.1h7.1c0.5,0,1-0.2,1.3-0.6
		s0.4-0.9,0.2-1.4L282.4,240.4z M283.2,274.9h-10.8l5.4-17.6L283.2,274.9z"/>
	<path class="st0" d="M343.8,239.3h-8.9c-0.7,0-1.3,0.4-1.5,1l-8.4,23.9l-7.8-23.8c-0.2-0.6-0.8-1.1-1.5-1.1h-8.9
		c-0.9,0-1.6,0.7-1.6,1.6v56.5c0,0.9,0.7,1.6,1.6,1.6h7c0.9,0,1.6-0.7,1.6-1.6v-22.6l-0.3-12l6.3,19.3c0.2,0.7,0.8,1.1,1.5,1.1h4.1
		c0.7,0,1.3-0.4,1.5-1.1l7.1-20.8l-0.3,13.5v22.5c0,0.9,0.7,1.6,1.6,1.6h7c0.9,0,1.6-0.7,1.6-1.6v-56.5
		C345.4,240,344.7,239.3,343.8,239.3z"/>
	<path class="st0" d="M388.7,244.1c-1.8-1.5-4-2.7-6.5-3.5c-2.4-0.8-5-1.2-7.7-1.3h-18.3c-0.9,0-1.6,0.7-1.6,1.6v56.5
		c0,0.9,0.7,1.6,1.6,1.6h7.2c0.9,0,1.6-0.7,1.6-1.6v-21.1h9.6c2.7,0,5.3-0.4,7.7-1.2c2.4-0.8,4.6-2,6.5-3.5c1.9-1.6,3.4-3.5,4.5-5.8
		c1.1-2.3,1.7-4.9,1.7-7.9c0-2.9-0.5-5.6-1.6-7.9S390.6,245.7,388.7,244.1z M384.5,257.9c0,1.5-0.3,2.8-0.7,3.9
		c-0.5,1.1-1.2,2.1-2,2.9c-0.9,0.8-1.9,1.4-3.1,1.8c-1.2,0.4-2.6,0.7-4,0.7H365v-18.9h9.5c1.5,0,2.8,0.3,4.1,0.7
		c1.2,0.4,2.3,1.1,3.1,1.9s1.5,1.8,2,3C384.3,255.1,384.5,256.4,384.5,257.9z"/>
	<path class="st0" d="M425.4,240.4c-0.2-0.7-0.8-1.1-1.5-1.1h-6c-0.7,0-1.3,0.4-1.5,1.1l-18.2,56.5c-0.2,0.5-0.1,1,0.2,1.4
		s0.8,0.6,1.3,0.6h7.2c0.7,0,1.3-0.5,1.5-1.1l4.2-13.5H429l4.1,13.5c0.2,0.7,0.8,1.1,1.5,1.1h7.1c0.5,0,1-0.2,1.3-0.6
		c0.3-0.4,0.4-0.9,0.2-1.4L425.4,240.4z M426.2,274.9h-10.8l5.4-17.6L426.2,274.9z"/>
	<path class="st0" d="M533.2,289.9h-24.8l12.7-13.8c1.4-1.6,2.8-3.2,4.1-4.7c1.3-1.6,2.5-3.3,3.5-4.9c1-1.7,1.8-3.4,2.5-5.2
		c0.6-1.8,0.9-3.7,0.9-5.5c0-2.4-0.4-4.7-1.3-6.8c-0.9-2.1-2.1-4-3.8-5.5c-1.6-1.5-3.6-2.8-5.9-3.6c-2.3-0.8-4.9-1.3-7.7-1.3
		c-3.1,0-5.9,0.5-8.3,1.5s-4.5,2.4-6.3,4.1c-1.7,1.7-3,3.8-3.9,6c-0.9,2.3-1.3,4.7-1.3,7.3c0,0.9,0.7,1.6,1.6,1.6h7.2
		c0.9,0,1.6-0.7,1.6-1.6c0-1.6,0.2-3,0.6-4.3c0.4-1.2,1-2.2,1.7-3s1.7-1.5,2.9-1.9c1.2-0.5,2.7-0.7,4.3-0.7c1.3,0,2.5,0.2,3.5,0.7
		c1,0.4,1.9,1,2.6,1.8c0.7,0.8,1.3,1.6,1.6,2.7c0.4,1,0.6,2.2,0.6,3.4c0,1-0.1,2-0.4,2.9c-0.3,0.9-0.7,2-1.3,3
		c-0.6,1.1-1.5,2.4-2.5,3.7c-1.1,1.4-2.5,3-4.1,4.8L495,291.1c-0.3,0.3-0.4,0.7-0.4,1v5.2c0,0.9,0.7,1.6,1.6,1.6h37
		c0.9,0,1.6-0.7,1.6-1.6v-5.9C534.8,290.6,534.1,289.9,533.2,289.9z"/>
	<path class="st0" d="M578,244.9c-1.7-2.1-3.8-3.7-6.3-4.8c-2.5-1.1-5.3-1.6-8.4-1.6c-3.1,0-5.9,0.5-8.3,1.6
		c-2.5,1.1-4.6,2.7-6.3,4.8c-1.7,2.1-3,4.6-3.9,7.6c-0.9,2.9-1.3,6.3-1.3,10v13.2c0,3.7,0.5,7.1,1.3,10c0.9,3,2.2,5.5,3.9,7.6
		c1.7,2.1,3.9,3.7,6.3,4.8c2.5,1.1,5.3,1.6,8.3,1.6c3.1,0,5.9-0.5,8.3-1.6c2.5-1.1,4.6-2.7,6.3-4.8c1.7-2,3-4.6,3.8-7.6
		c0.9-2.9,1.3-6.3,1.3-10v-13.2c0-3.7-0.4-7.1-1.3-10C581,249.5,579.7,247,578,244.9z M553.9,271.1v-10.2c0-4.5,0.8-8,2.4-10.3
		c1.5-2.1,3.8-3.2,7.1-3.2c2.9,0,5,0.8,6.5,2.4c1.4,1.5,2.3,3.8,2.8,6.8L553.9,271.1z M572.9,267.4v9.8c0,4.5-0.8,8-2.4,10.3
		c-1.5,2.2-3.8,3.2-7.1,3.2c-2.8,0-4.9-0.8-6.4-2.4c-1.4-1.5-2.4-3.7-2.8-6.6L572.9,267.4z"/>
	<path class="st0" d="M617.1,239.3h-0.6c-0.2,0-0.4,0-0.6,0.1l-21.4,8.2c-0.6,0.2-1,0.8-1,1.5v6.5c0,0.5,0.3,1,0.7,1.3
		c0.4,0.3,1,0.4,1.4,0.2l12.7-4.8v45c0,0.9,0.7,1.6,1.6,1.6h7.2c0.9,0,1.6-0.7,1.6-1.6v-56.5C618.7,240,618,239.3,617.1,239.3z"/>
	<g>
		<g>
			<polygon class="st0" points="230.3,108.8 212.6,108.8 212.6,18.4 116,18.4 116,0.2 230.3,0.2 			"/>
		</g>
		<g>
			<polygon class="st0" points="98,262.9 98,198.3 1.9,198.3 1.9,90.6 20.1,90.6 20.1,180.1 116.2,180.1 116.2,222 158.5,180.3
				181.3,180.5 			"/>
		</g>

			<rect x="11.6" y="93.9" transform="matrix(0.4709 -0.8822 0.8822 0.4709 -49.1978 122.4844)" class="st0" width="131.9" height="16.7"/>
		<g>
			<g>
				<rect x="155.7" y="30.1" class="st0" width="17" height="59.5"/>
			</g>
			<g>

					<rect x="155.7" y="30.1" transform="matrix(0.4226 -0.9063 0.9063 0.4226 40.5631 183.2906)" class="st0" width="16.9" height="59.5"/>
			</g>
			<g>

					<rect x="134.4" y="51.2" transform="matrix(0.9063 -0.4226 0.4226 0.9063 -9.9041 74.9687)" class="st0" width="59.5" height="17.2"/>
			</g>
		</g>
		<polygon class="st1" points="156.5,82.3 173.4,74.4 173.4,74.1 173.8,74.2 193.9,64.9 184.5,60.5 156.5,73.6 		"/>
	</g>
	<g>
		<path class="st0" d="M661.4,275.5c-3.1,3-6.6,4.5-10.7,4.5c-5.2,0-9.4-1.8-12.6-5.4s-4.7-8.4-4.7-14.5c0-3.9,0.8-7.4,2.5-10.7
			s4.1-5.8,7.1-7.6c3-1.8,6.5-2.7,10.3-2.7c3.9,0,7.4,1,10.4,2.9c3,2,5.4,4.8,7.1,8.4s2.5,7.8,2.6,12.6v4.3c0,9.9-2.5,17.6-7.4,23.3
			s-11.9,8.7-20.9,9l-2.9,0v-9.8l2.6,0C655.1,289.4,660.6,284.6,661.4,275.5z M653.6,271c1.9,0,3.5-0.5,4.9-1.5
			c1.4-1,2.4-2.2,3.1-3.5v-4.8c0-4-0.8-7.1-2.3-9.3c-1.5-2.2-3.5-3.3-6.1-3.3c-2.4,0-4.3,1.1-5.8,3.2c-1.5,2.2-2.3,4.9-2.3,8.1
			c0,3.2,0.7,5.9,2.2,8C648.8,269.9,650.9,271,653.6,271z"/>
	</g>
</g>
</svg>
