<?xml version="1.0" encoding="utf-8"?>
<!-- Generator: Adobe Illustrator 19.2.1, SVG Export Plug-In . SVG Version: 6.00 Build 0)  -->
<svg version="1.0" id="twitter" xmlns="http://www.w3.org/2000/svg" xmlns:xlink="http://www.w3.org/1999/xlink" x="0px" y="0px"
	 viewBox="0 0 38 38" style="enable-background:new 0 0 38 38;" xml:space="preserve">
<style type="text/css">
	.st0{fill:#FFFFFF;}
</style>
<path class="st0" d="M38,7.2c-1.4,0.6-2.9,1-4.5,1.2c1.6-1,2.8-2.5,3.4-4.3C35.4,5,33.8,5.7,32,6c-1.4-1.5-3.4-2.5-5.7-2.5
	c-5,0-8.7,4.7-7.6,9.6C12.2,12.8,6.5,9.7,2.6,5c-2,3.5-1.1,8.1,2.4,10.4c-1.3,0-2.5-0.4-3.5-1c-0.1,3.6,2.5,7,6.3,7.7
	c-1.1,0.3-2.3,0.4-3.5,0.1c1,3.1,3.9,5.4,7.3,5.4C8.3,30.3,4.1,31.4,0,30.9c3.5,2.2,7.5,3.5,12,3.5c14.5,0,22.7-12.2,22.2-23.2
	C35.6,10.2,37,8.8,38,7.2z"/>
</svg>
