<?xml version="1.0" encoding="utf-8"?>
<!-- Generator: Adobe Illustrator 19.2.1, SVG Export Plug-In . SVG Version: 6.00 Build 0)  -->
<svg version="1.0" id="instagram" xmlns="http://www.w3.org/2000/svg" xmlns:xlink="http://www.w3.org/1999/xlink" x="0px" y="0px"
	 viewBox="0 0 38 38" style="enable-background:new 0 0 38 38;" xml:space="preserve">
<style type="text/css">
	.st0{fill:#FFFFFF;}
</style>
<path class="st0" d="M19,3.4c5.1,0,5.7,0,7.7,0.1c5.1,0.2,7.6,2.7,7.8,7.8c0.1,2,0.1,2.6,0.1,7.7c0,5.1,0,5.7-0.1,7.7
	c-0.2,5.1-2.6,7.6-7.8,7.8c-2,0.1-2.6,0.1-7.7,0.1c-5.1,0-5.7,0-7.7-0.1c-5.2-0.2-7.6-2.7-7.8-7.8c-0.1-2-0.1-2.6-0.1-7.7
	c0-5.1,0-5.7,0.1-7.7c0.2-5.1,2.6-7.6,7.8-7.8C13.3,3.4,13.9,3.4,19,3.4z M19,0c-5.2,0-5.8,0-7.8,0.1C4.3,0.4,0.4,4.3,0.1,11.2
	C0,13.2,0,13.8,0,19s0,5.8,0.1,7.8c0.3,6.9,4.1,10.7,11.1,11.1c2,0.1,2.7,0.1,7.8,0.1s5.8,0,7.8-0.1c6.9-0.3,10.7-4.1,11.1-11.1
	c0.1-2,0.1-2.7,0.1-7.8s0-5.8-0.1-7.8C37.6,4.3,33.7,0.4,26.8,0.1C24.8,0,24.2,0,19,0z M19,9.2c-5.4,0-9.8,4.4-9.8,9.8
	s4.4,9.8,9.8,9.8s9.8-4.4,9.8-9.8C28.8,13.6,24.4,9.2,19,9.2z M19,25.3c-3.5,0-6.3-2.8-6.3-6.3c0-3.5,2.8-6.3,6.3-6.3
	s6.3,2.8,6.3,6.3C25.3,22.5,22.5,25.3,19,25.3z M29.1,6.6c-1.3,0-2.3,1-2.3,2.3s1,2.3,2.3,2.3c1.3,0,2.3-1,2.3-2.3
	S30.4,6.6,29.1,6.6z"/>
</svg>
