<?xml version="1.0" encoding="utf-8"?>
<svg version="1.1" id="logo" xmlns="http://www.w3.org/2000/svg" xmlns:xlink="http://www.w3.org/1999/xlink" x="0px" y="0px" viewBox="0 0 232.9 299.9" style="enable-background:new 0 0 232.9 299.9;" xml:space="preserve">
  <style type="text/css">
    .st0{fill:#FFFFFF;}
    .st1{fill:#E6E6E6;}
  </style>

  <g>
    <g>
      <g>
        <polygon class="st0" points="230.3,108.8 212.6,108.8 212.6,18.4 116,18.4 116,0.2 230.3,0.2 			"/>
      </g>
      <g>
        <polygon class="st0" points="98,262.9 98,198.3 1.9,198.3 1.9,90.6 20.1,90.6 20.1,180.1 116.2,180.1 116.2,222 158.5,180.3
          181.3,180.5 			"/>
      </g>

        <rect x="11.6" y="93.9" transform="matrix(0.4709 -0.8822 0.8822 0.4709 -49.1978 122.4844)" class="st0" width="131.9" height="16.7"/>
      <g>
        <g>
          <rect x="155.7" y="30.1" class="st0" width="17" height="59.5"/>
        </g>
        <g>

            <rect x="155.7" y="30.1" transform="matrix(0.4226 -0.9063 0.9063 0.4226 40.5631 183.2906)" class="st0" width="16.9" height="59.5"/>
        </g>
        <g>

            <rect x="134.4" y="51.2" transform="matrix(0.9063 -0.4226 0.4226 0.9063 -9.9041 74.9687)" class="st0" width="59.5" height="17.2"/>
        </g>
      </g>
      <polygon class="st1" points="156.5,82.3 173.4,74.4 173.4,74.1 173.8,74.2 193.9,64.9 184.5,60.5 156.5,73.6 		"/>
    </g>
  </g>
</svg>
